<?xml version="1.0" standalone="no"?>
<!DOCTYPE svg PUBLIC "-//W3C//DTD SVG 20010904//EN"
 "http://www.w3.org/TR/2001/REC-SVG-20010904/DTD/svg10.dtd">
<svg version="1.0" xmlns="http://www.w3.org/2000/svg"
 width="350.000000pt" height="350.000000pt" viewBox="0 0 350.000000 350.000000"
 preserveAspectRatio="xMidYMid meet">
<metadata>
Created by potrace 1.11, written by Peter Selinger 2001-2013
</metadata>
<g transform="translate(0.000000,350.000000) scale(0.100000,-0.100000)"
fill="#000000" stroke="none">
<path d="M1595 3366 c-97 -19 -156 -41 -252 -91 -168 -89 -277 -195 -349 -340
-63 -127 -74 -191 -74 -435 0 -123 -4 -199 -9 -191 -12 19 -43 6 -39 -16 2
-13 -6 -21 -26 -28 -48 -16 -69 -63 -68 -157 0 -72 4 -88 36 -153 25 -51 54
-89 97 -129 51 -47 64 -67 83 -124 45 -131 96 -216 212 -353 l73 -86 -40 -18
c-51 -23 -106 -84 -131 -146 -12 -27 -26 -49 -32 -49 -26 0 -135 -60 -178 -99
-54 -48 -125 -151 -159 -230 -20 -48 -21 -56 -8 -79 16 -28 39 -41 39 -21 0 7
20 55 45 106 90 185 220 272 446 299 l56 6 12 -48 c6 -27 15 -79 20 -115 15
-110 55 -169 141 -208 61 -28 70 -26 70 9 0 26 -6 32 -40 46 -74 30 -95 69
-118 221 -22 136 -80 248 -126 241 -27 -4 -33 -34 -10 -59 9 -10 15 -21 13
-22 -9 -8 -119 -23 -119 -17 0 25 67 94 114 117 l54 26 59 -39 60 -39 5 -66
c8 -109 67 -196 171 -251 60 -33 194 -33 254 0 106 56 163 142 171 256 l5 71
51 38 c57 42 72 42 144 1 41 -24 102 -95 102 -118 0 -8 -18 -9 -65 -2 -66 10
-79 22 -50 46 22 18 15 54 -11 58 -16 2 -31 -10 -58 -47 -46 -62 -74 -139 -86
-237 -5 -41 -16 -87 -25 -103 -16 -32 -55 -67 -86 -76 -14 -5 -19 -16 -19 -40
0 -33 1 -33 31 -25 38 11 91 51 118 89 22 30 34 74 51 188 17 105 15 104 142
82 137 -24 253 -68 312 -120 48 -42 125 -158 147 -222 7 -20 15 -37 19 -37 3
0 14 12 24 27 23 31 17 52 -36 141 -71 119 -169 198 -286 233 -40 12 -46 18
-73 75 -32 67 -88 125 -147 152 -20 9 -39 17 -41 19 -2 1 18 26 44 55 96 106
179 247 225 381 14 39 29 67 37 67 30 0 124 104 159 175 32 64 36 81 36 152 1
110 -29 163 -91 163 -14 0 -21 6 -21 20 0 13 -7 20 -20 20 -19 0 -20 7 -20
203 0 236 -10 297 -70 424 -35 74 -54 100 -129 173 -123 120 -268 201 -436
245 -85 22 -245 28 -330 11z m-55 -602 c137 -42 257 -41 393 4 151 50 271 41
365 -28 58 -42 79 -89 106 -247 13 -76 36 -174 50 -218 27 -85 25 -95 -24 -95
-20 0 -29 9 -42 40 -19 46 -68 80 -116 80 -20 0 -48 11 -72 29 -74 54 -192 65
-275 26 -19 -10 -37 -24 -40 -33 -3 -10 -25 -26 -48 -37 -31 -15 -47 -31 -62
-62 -11 -23 -27 -42 -35 -42 -8 0 -24 19 -35 42 -13 28 -33 49 -58 62 -20 11
-40 27 -42 37 -3 9 -21 23 -40 33 -83 39 -201 28 -275 -26 -27 -20 -52 -29
-77 -29 -50 0 -99 -31 -120 -75 -14 -29 -22 -35 -49 -35 -18 0 -35 4 -38 8 -2
4 4 44 14 88 11 43 28 129 40 189 37 196 92 277 210 316 46 15 172 3 270 -27z
m-25 -454 c13 -6 -9 -9 -65 -9 -56 0 -78 3 -65 9 11 5 40 9 65 9 25 0 54 -4
65 -9z m585 0 c17 -5 -3 -8 -60 -8 -56 0 -78 2 -65 8 25 11 92 11 125 0z
m-857 -61 l21 -12 -22 -8 c-28 -10 -62 -66 -62 -101 0 -95 199 -166 345 -123
70 20 125 69 125 110 0 41 -29 94 -61 110 -21 11 -67 15 -176 16 -110 0 -142
3 -123 10 14 6 89 9 176 7 135 -3 154 -5 174 -23 35 -31 41 -58 25 -113 -20
-66 -66 -127 -117 -154 -37 -20 -58 -23 -148 -23 -124 0 -171 19 -220 87 -37
51 -62 131 -51 161 11 27 39 53 66 60 11 2 21 5 23 6 2 0 13 -4 25 -10z m992
2 c11 -1 31 -1 45 -1 37 0 74 -42 73 -83 -2 -88 -80 -191 -162 -215 -49 -15
-173 -15 -222 0 -82 24 -160 127 -162 215 -1 36 32 79 67 86 16 4 236 2 361
-2z m-1329 -49 c7 -4 14 -59 17 -142 3 -74 8 -146 12 -160 7 -24 6 -24 -19 5
-47 55 -70 115 -74 191 -2 42 1 80 7 93 12 21 36 27 57 13z m440 -27 c-9 -48
16 -99 59 -119 18 -9 38 -16 45 -16 7 0 27 7 45 16 43 20 69 73 60 122 -7 35
-6 35 17 20 65 -43 62 -103 -10 -145 -41 -25 -57 -28 -132 -28 -71 0 -94 4
-142 27 -69 32 -87 61 -68 108 15 36 38 48 94 49 l38 1 -6 -35z m1294 16 c15
-29 12 -132 -5 -182 -16 -44 -93 -154 -102 -145 -3 2 2 36 11 75 9 38 16 110
16 160 0 75 3 92 18 100 27 16 50 13 62 -8z m-1554 -68 c23 -95 108 -190 191
-214 62 -18 185 -18 246 0 83 24 158 108 191 214 3 9 15 17 26 17 11 0 23 -8
26 -17 30 -96 94 -175 171 -209 53 -25 232 -25 286 -1 75 35 145 117 167 197
5 21 14 26 54 31 35 4 49 2 53 -8 13 -34 -7 -176 -41 -293 -67 -230 -163 -390
-325 -542 -243 -229 -512 -234 -771 -16 -90 76 -213 231 -263 331 -74 147
-135 424 -113 511 6 23 11 26 51 26 40 0 45 -3 51 -27z m904 -1029 c0 -118
-119 -234 -240 -234 -119 0 -240 116 -240 230 0 17 4 20 18 14 48 -21 154 -43
207 -43 66 -1 171 21 213 44 37 20 42 19 42 -11z"/>
<path d="M1889 2225 c-30 -16 -59 -70 -59 -110 0 -41 55 -90 125 -110 146 -43
345 28 345 123 0 37 -35 90 -66 102 -41 16 -314 12 -345 -5z m36 -49 c-9 -47
17 -100 60 -120 18 -9 38 -16 45 -16 7 0 27 7 45 16 43 20 68 71 59 119 -6 35
-6 35 29 35 54 0 82 -15 97 -50 19 -47 1 -76 -68 -108 -48 -23 -70 -27 -142
-27 -63 0 -94 5 -118 18 -78 43 -92 88 -43 138 38 37 43 37 36 -5z"/>
<path d="M1600 1791 c0 -11 17 -33 37 -48 31 -24 46 -28 98 -28 52 0 67 4 98
28 39 29 50 67 20 67 -9 0 -30 -12 -46 -27 -22 -22 -38 -28 -72 -28 -34 0 -50
6 -72 28 -34 32 -63 36 -63 8z"/>
<path d="M1440 1534 c0 -30 51 -118 93 -162 68 -71 107 -87 212 -87 73 0 97 4
130 22 55 29 118 98 149 159 43 86 42 86 -76 77 -57 -4 -148 -8 -203 -8 -55 0
-146 4 -202 8 -92 7 -103 6 -103 -9z m550 -42 c0 -8 -38 -61 -64 -90 -51 -55
-101 -76 -181 -76 -80 0 -130 21 -181 76 -26 29 -64 82 -64 90 0 2 110 3 245
3 135 0 245 -1 245 -3z"/>
<path d="M1620 670 c0 -29 1 -30 50 -30 l50 0 0 -260 0 -260 30 0 30 0 0 260
0 260 50 0 c49 0 50 1 50 30 l0 30 -130 0 -130 0 0 -30z"/>
</g>
</svg>
