<?xml version="1.0" standalone="no"?>
<!DOCTYPE svg PUBLIC "-//W3C//DTD SVG 20010904//EN"
 "http://www.w3.org/TR/2001/REC-SVG-20010904/DTD/svg10.dtd">
<svg version="1.0" xmlns="http://www.w3.org/2000/svg"
 width="700.000000pt" height="700.000000pt" viewBox="0 0 700.000000 700.000000"
 preserveAspectRatio="xMidYMid meet">
<metadata>
Created by potrace 1.11, written by Peter Selinger 2001-2013
</metadata>
<g transform="translate(0.000000,700.000000) scale(0.100000,-0.100000)"
fill="#000000" stroke="none">
<path d="M3305 6789 c-302 -31 -630 -167 -900 -375 -91 -69 -269 -251 -328
-335 -82 -116 -166 -320 -213 -514 -13 -54 -18 -136 -22 -362 l-4 -291 -84
-72 c-375 -322 -677 -800 -812 -1285 -72 -258 -96 -439 -96 -725 0 -286 24
-467 96 -725 92 -332 276 -686 498 -960 82 -103 282 -303 385 -385 274 -222
628 -406 960 -498 258 -72 439 -96 725 -96 286 0 467 24 725 96 332 92 686
276 960 498 103 82 303 282 385 385 222 274 406 628 498 960 72 258 96 439 96
725 0 286 -24 467 -96 725 -92 333 -276 687 -498 960 -83 104 -273 294 -376
378 l-81 66 -6 288 c-8 354 -18 408 -127 658 -55 124 -122 218 -239 336 -394
393 -941 600 -1446 548z m-458 -1160 c34 -5 129 -30 210 -55 323 -98 497 -99
778 -4 174 59 236 72 355 71 175 -1 331 -53 441 -149 101 -89 125 -151 175
-451 40 -243 47 -274 109 -473 24 -78 42 -145 39 -150 -3 -4 -38 -8 -77 -8
l-72 0 -18 51 c-22 61 -76 123 -131 151 -25 13 -69 23 -111 26 -61 4 -75 9
-117 43 -171 135 -441 157 -611 49 -33 -21 -49 -38 -53 -58 -5 -25 -14 -32
-62 -47 -74 -23 -142 -89 -168 -162 -18 -50 -20 -53 -54 -53 -33 0 -36 3 -53
51 -25 69 -86 134 -150 157 -43 16 -53 25 -60 51 -16 64 -138 118 -287 128
-137 9 -276 -35 -387 -124 -37 -29 -48 -33 -102 -33 -130 0 -241 -77 -270
-189 -7 -23 -10 -24 -86 -22 -44 1 -81 4 -82 5 -2 1 11 58 28 127 17 68 48
219 69 334 22 116 51 250 65 299 82 281 228 417 485 449 33 4 121 -2 197 -14z
m2446 -981 c230 -230 369 -422 502 -693 88 -180 132 -297 180 -476 60 -230 79
-379 79 -649 0 -192 -4 -261 -22 -375 -53 -339 -177 -680 -346 -953 l-58 -93
-59 116 c-75 147 -132 234 -210 319 -106 115 -210 179 -408 250 l-113 41 -22
60 c-67 185 -175 300 -349 371 l-66 27 75 80 c103 109 216 263 307 416 90 152
105 183 167 361 l47 135 54 26 c148 73 316 303 355 489 24 111 21 271 -5 341
-32 85 -102 139 -181 139 -25 0 -28 3 -26 31 1 40 -25 60 -54 41 -19 -12 -20
-10 -20 68 0 46 4 80 10 80 5 0 79 -69 163 -152z m-3443 36 l0 -77 -23 34
c-40 60 -112 33 -76 -29 l16 -28 -51 -12 c-107 -26 -158 -118 -158 -292 0
-131 21 -233 68 -328 65 -133 199 -290 279 -329 28 -13 35 -29 80 -160 27 -81
63 -176 81 -213 84 -176 251 -412 408 -577 l96 -101 -73 -37 c-136 -67 -225
-165 -282 -312 l-29 -73 -70 -26 c-227 -86 -360 -193 -502 -405 -61 -92 -155
-276 -169 -332 -4 -15 -10 -27 -14 -27 -15 0 -138 206 -206 345 -88 180 -132
297 -180 476 -60 230 -79 379 -79 649 0 270 19 419 79 649 88 333 247 651 463
930 62 80 321 351 335 351 4 0 7 -34 7 -76z m1195 -27 c38 -15 32 -16 -144
-16 -101 -1 -182 1 -180 4 3 2 30 11 60 20 66 18 205 14 264 -8z m1150 3 l70
-18 -180 0 -180 0 55 18 c69 23 145 23 235 0z m-1715 -119 c0 -18 52 -22 76
-6 20 13 71 15 342 15 314 0 320 0 362 -23 51 -27 90 -90 90 -147 0 -92 -66
-236 -146 -320 -96 -101 -215 -143 -404 -143 -189 0 -308 42 -404 143 -79 82
-146 228 -146 317 0 67 42 130 105 159 34 15 125 19 125 5z m1949 -8 c29 -17
32 -17 65 1 101 54 226 -51 213 -179 -12 -120 -104 -284 -192 -345 -131 -90
-326 -123 -506 -85 -183 39 -291 129 -360 300 -52 130 -49 212 9 271 52 52 62
53 414 54 293 0 330 -2 357 -17z m-2601 -97 c14 -13 16 -50 17 -238 1 -170 5
-243 19 -307 9 -46 15 -85 13 -87 -9 -9 -109 132 -142 200 -43 87 -56 153 -57
271 0 138 28 191 96 182 21 -3 46 -13 54 -21z m3435 6 c28 -31 39 -76 39 -167
-1 -118 -14 -184 -58 -273 -34 -70 -127 -196 -174 -237 l-23 -20 5 25 c3 14
18 77 33 140 24 99 29 143 34 314 l6 199 35 18 c44 24 82 24 103 1z m-3088
-159 c67 -236 216 -387 431 -439 93 -23 295 -23 388 0 210 50 351 189 426 419
l22 67 38 0 39 0 20 -63 c56 -182 153 -307 293 -375 195 -96 461 -96 656 0
140 68 237 193 293 375 l20 63 77 0 c42 0 88 3 101 7 l24 6 -6 -164 c-5 -151
-8 -176 -46 -318 -50 -185 -122 -408 -165 -511 -80 -189 -259 -450 -429 -627
-256 -265 -501 -403 -779 -435 -430 -51 -907 245 -1269 786 -110 164 -151 250
-224 471 -98 296 -117 393 -123 618 l-4 187 98 0 99 0 20 -67z m1805 -2051 c0
-116 -53 -237 -144 -328 -192 -192 -480 -192 -672 0 -67 67 -106 134 -129 223
-13 50 -21 133 -12 133 2 0 41 -14 87 -30 260 -96 522 -91 775 14 44 19 83 34
88 35 4 0 7 -21 7 -47z m-760 -632 c20 -20 20 -33 20 -562 0 -490 -2 -543 -17
-560 -21 -24 -58 -23 -83 2 -20 20 -20 33 -20 562 0 490 2 543 17 560 21 24
58 23 83 -2z m650 0 c19 -19 20 -33 20 -322 0 -266 -2 -304 -17 -320 -21 -24
-58 -23 -83 2 -19 19 -20 33 -20 322 0 266 2 304 17 320 21 24 58 23 83 -2z"/>
<path d="M2521 4510 c-24 -5 -58 -21 -76 -34 -44 -34 -85 -118 -85 -174 0 -91
53 -151 185 -213 195 -91 435 -92 606 -3 91 48 140 106 147 173 8 90 -46 198
-121 239 -28 15 -68 17 -322 19 -159 1 -310 -2 -334 -7z m179 -62 c0 -7 -5
-31 -10 -53 -13 -55 4 -134 40 -184 82 -113 258 -113 340 0 36 50 53 129 40
184 -14 57 -13 58 18 50 51 -12 92 -70 106 -148 23 -128 -222 -241 -454 -208
-212 29 -371 126 -357 218 8 49 37 103 65 121 16 11 57 19 106 23 45 3 87 6
94 7 6 1 12 -4 12 -10z"/>
<path d="M3828 4511 c-71 -14 -134 -79 -158 -166 -31 -109 14 -193 139 -259
171 -89 411 -88 606 3 132 62 185 122 185 213 0 56 -41 140 -84 173 -18 14
-57 29 -86 35 -59 11 -545 12 -602 1z m636 -80 c33 -18 64 -72 72 -123 15 -93
-142 -190 -356 -219 -232 -33 -477 80 -454 208 14 78 55 136 107 148 30 8 31
7 17 -50 -13 -55 4 -134 40 -184 82 -113 258 -113 340 0 36 50 53 129 40 184
-5 22 -10 45 -10 51 0 17 169 5 204 -15z"/>
<path d="M3206 3644 c-13 -33 -4 -53 40 -93 69 -65 134 -91 224 -91 90 0 155
26 224 91 64 58 63 109 -3 109 -9 0 -33 -16 -52 -36 -46 -49 -102 -74 -167
-74 -66 0 -113 19 -168 70 -46 42 -87 52 -98 24z"/>
<path d="M2884 3114 c-15 -59 102 -260 208 -360 115 -107 236 -154 398 -154
162 0 283 47 398 154 106 100 223 301 208 360 -6 23 -11 26 -54 26 -26 0 -105
-7 -177 -15 -80 -9 -225 -15 -375 -15 -150 0 -295 6 -375 15 -71 8 -151 15
-177 15 -43 0 -48 -3 -54 -26z m280 -84 c201 -19 638 -10 789 15 37 6 35 -6
-14 -87 -78 -131 -198 -227 -324 -257 -64 -16 -186 -16 -250 0 -126 30 -246
126 -324 257 -49 81 -51 93 -13 87 15 -3 76 -9 136 -15z"/>
</g>
</svg>
