<?xml version="1.0" encoding="UTF-8"?>
<svg width="600px" height="355px" viewBox="0 0 600 355" version="1.1" xmlns="http://www.w3.org/2000/svg" xmlns:xlink="http://www.w3.org/1999/xlink">
    <!-- Generator: Sketch 52.6 (67491) - http://www.bohemiancoding.com/sketch -->
    <title>aqua copy</title>
    <desc>Created with Sketch.</desc>
    <defs>
        <path d="M79.087905,0.446935725 C78.7101512,0.89387145 77.0961123,3.50672646 65.5917927,22.0029895 C61.1961123,29.0852018 57.1095032,35.651719 56.4913607,36.6143498 C55.8732181,37.5426009 53.5723542,41.2556054 51.3401728,44.8654709 C49.1079914,48.4409567 41.6902808,60.3707025 34.8563715,71.3378176 C22.562203,91.1061286 14.1142549,104.686099 12.8436285,106.817638 C12.500216,107.436472 11.2982721,109.361734 10.2336933,111.149477 C8.61965443,113.831091 6.59352052,117.819133 6.55917927,118.437967 C6.52483801,118.541106 6.18142549,119.331839 5.7349892,120.26009 C3.67451404,124.316891 1.20194384,134.218236 0.343412527,141.678625 C-0.309071274,147.110613 0.0686825054,158.559043 1.03023758,163.991031 C3.8462203,179.874439 11.0235421,193.970105 22.287473,205.693572 C28.8809935,212.535127 35.5775378,217.382661 44.4719222,221.748879 C55.9762419,227.421525 66.3816415,229.828102 79.5,229.828102 C92.6183585,229.828102 103.023758,227.421525 114.528078,221.748879 C123.422462,217.382661 130.119006,212.535127 136.712527,205.693572 C147.976458,193.970105 155.15378,179.874439 157.969762,163.991031 C158.931317,158.559043 159.309071,147.110613 158.656587,141.678625 C157.798056,134.218236 155.325486,124.316891 153.265011,120.26009 C152.818575,119.331839 152.475162,118.541106 152.475162,118.437967 C152.475162,117.887892 150.517711,114.071749 148.800648,111.218236 C147.701728,109.430493 146.499784,107.436472 146.156371,106.817638 C144.885745,104.686099 136.437797,91.1061286 124.143629,71.3378176 C117.309719,60.3707025 109.892009,48.4409567 107.659827,44.8654709 C105.427646,41.2556054 103.126782,37.5426009 102.508639,36.6143498 C101.890497,35.651719 97.8038877,29.0852018 93.4082073,22.0029895 C81.2514039,2.40657698 79.912095,0.343796712 79.6717063,0.171898356 C79.5343413,0.0687593423 79.2596112,0.206278027 79.087905,0.446935725 Z" id="path-1"></path>
    </defs>
    <g id="aqua-copy" stroke="none" stroke-width="1" fill="none" fill-rule="evenodd">
        <g id="Path-+-Path-+-Path-Mask" transform="translate(221.000000, 63.000000)">
            <mask id="mask-2" fill="white">
                <use xlink:href="#path-1"></use>
            </mask>
            <use id="Mask" fill="#0043B3" fill-rule="nonzero" xlink:href="#path-1"></use>
            <path d="M78.8058244,-23.6289183 C78.4497853,-23.20883 76.9285271,-20.7529291 66.0855166,-3.3677355 C61.9425156,3.28904865 58.0908193,9.4611155 57.5082098,10.3659211 C56.9256003,11.2384122 54.7569982,14.7283767 52.6531305,18.1213978 C50.5492628,21.4821044 43.5579486,32.6952311 37.1168767,43.0035521 C25.5294207,61.5843817 17.5670907,74.3486037 16.3695044,76.3521019 C16.0458325,76.9337626 14.9129806,78.7433738 13.9095976,80.4237271 C12.3883394,82.944257 10.4786749,86.6927374 10.4463077,87.2743982 C10.4139405,87.3713416 10.0902685,88.1145748 9.66949498,88.9870659 C7.72746325,92.8001753 5.39702518,102.106747 4.58784529,109.118991 C3.97286858,114.22468 4.32890773,124.985404 5.2351892,130.091092 C7.88929923,145.020385 14.6540431,158.269324 25.2704832,169.288564 C31.4849847,175.719147 37.7965878,180.275489 46.1796914,184.379429 C57.0227019,189.711319 66.8299621,191.973333 79.1942308,191.973333 C91.5584994,191.973333 101.36576,189.711319 112.20877,184.379429 C120.591874,180.275489 126.903477,175.719147 133.117978,169.288564 C143.734418,158.269324 150.499162,145.020385 153.153272,130.091092 C154.059554,124.985404 154.415593,114.22468 153.800616,109.118991 C152.991436,102.106747 150.660998,92.8001753 148.718967,88.9870659 C148.298193,88.1145748 147.974521,87.3713416 147.974521,87.2743982 C147.974521,86.7573664 146.129591,83.1704584 144.511231,80.4883561 C143.475481,78.8080028 142.342629,76.9337626 142.018957,76.3521019 C140.821371,74.3486037 132.859041,61.5843817 121.271585,43.0035521 C114.830513,32.6952311 107.839199,21.4821044 105.735331,18.1213978 C103.631463,14.7283767 101.462861,11.2384122 100.880252,10.3659211 C100.297642,9.4611155 96.4459459,3.28904865 92.3029449,-3.3677355 C80.8449577,-21.7869926 79.5826371,-23.7258618 79.3560667,-23.8874342 C79.226598,-23.9843777 78.9676604,-23.8551197 78.8058244,-23.6289183 Z" id="Path" fill="#0056E6" fill-rule="nonzero" mask="url(#mask-2)"></path>
            <path d="M79.1956163,-20.0125924 C78.9165978,-19.6843984 77.7244281,-17.7657258 69.2270485,-4.18354336 C65.9802885,1.01706926 62.9618164,5.83899649 62.5052407,6.54587587 C62.0486651,7.22750956 60.3491892,9.95404433 58.7004439,12.604842 C57.0516986,15.230394 51.5727911,23.9906493 46.525094,32.0440251 C37.4443121,46.5602982 31.2044453,56.5323466 30.2659287,58.0975796 C30.0122756,58.552002 29.1244897,59.9657608 28.338165,61.2785368 C27.1459953,63.2477008 25.6494419,66.1762011 25.6240766,66.6306236 C25.5987113,66.7063607 25.3450582,67.2870116 25.0153091,67.9686453 C23.4933904,70.947637 21.6670879,78.2183963 21.0329551,83.6967116 C20.5510141,87.685531 20.8300326,96.0923465 21.5402613,100.081166 C23.6202169,111.744676 28.9215672,122.09541 37.2413896,130.704191 C42.1115296,135.728083 47.0577655,139.287726 53.6273814,142.493929 C62.124761,146.659468 69.8104507,148.426667 79.5,148.426667 C89.1895493,148.426667 96.875239,146.659468 105.372619,142.493929 C111.942234,139.287726 116.88847,135.728083 121.75861,130.704191 C130.078433,122.09541 135.379783,111.744676 137.459739,100.081166 C138.169967,96.0923465 138.448986,87.685531 137.967045,83.6967116 C137.332912,78.2183963 135.50661,70.947637 133.984691,67.9686453 C133.654942,67.2870116 133.401289,66.7063607 133.401289,66.6306236 C133.401289,66.2266925 131.955466,63.4244207 130.6872,61.3290282 C129.87551,60.0162522 128.987724,58.552002 128.734071,58.0975796 C127.795555,56.5323466 121.555688,46.5602982 112.474906,32.0440251 C107.427209,23.9906493 101.948301,15.230394 100.299556,12.604842 C98.6508108,9.95404433 96.9513349,7.22750956 96.4947593,6.54587587 C96.0381836,5.83899649 93.0197115,1.01706926 89.7729515,-4.18354336 C80.7936309,-18.573588 79.8043837,-20.0883295 79.6268266,-20.214558 C79.5253653,-20.2902951 79.3224428,-20.1893123 79.1956163,-20.0125924 Z" id="Path" fill="#166DFF" fill-rule="nonzero" mask="url(#mask-2)"></path>
            <path d="M78.951675,-32.3239137 C78.7293322,-32.0601651 77.7793219,-30.51825 71.0079725,-19.6031142 C68.4207107,-15.4237128 66.0153657,-11.5486368 65.651532,-10.9805628 C65.2876983,-10.4327772 63.9334284,-8.24163467 62.6195845,-6.11135726 C61.3057406,-4.00136819 56.9397362,3.03869147 52.9173525,9.51067715 C45.6811045,21.1764821 40.7087106,29.1903828 39.9608302,30.4482609 C39.7587004,30.8134513 39.051246,31.9495993 38.4246435,33.0045938 C37.4746333,34.5870856 36.2820673,36.940535 36.2618543,37.3057254 C36.2416413,37.3665904 36.0395115,37.8332226 35.7767427,38.3810083 C34.5639637,40.7750343 33.1086289,46.6180809 32.6033043,51.0206543 C32.2192576,54.2262146 32.4416005,60.9822373 33.007564,64.1877976 C34.6650286,73.5610182 38.8895421,81.8792443 45.5194006,88.7975738 C49.4002934,92.8349567 53.3418252,95.695615 58.5769878,98.2722363 C65.3483372,101.619815 71.4728712,103.04 79.1942308,103.04 C86.9155904,103.04 93.0401243,101.619815 99.8114737,98.2722363 C105.046636,95.695615 108.988168,92.8349567 112.869061,88.7975738 C119.498919,81.8792443 123.723433,73.5610182 125.380898,64.1877976 C125.946861,60.9822373 126.169204,54.2262146 125.785157,51.0206543 C125.279833,46.6180809 123.824498,40.7750343 122.611719,38.3810083 C122.34895,37.8332226 122.14682,37.3665904 122.14682,37.3057254 C122.14682,36.9811117 120.99468,34.7291041 119.984031,33.0451705 C119.337216,31.990176 118.629761,30.8134513 118.427631,30.4482609 C117.679751,29.1903828 112.707357,21.1764821 105.471109,9.51067715 C101.448725,3.03869147 97.082721,-4.00136819 95.7688771,-6.11135726 C94.4550331,-8.24163467 93.1007633,-10.4327772 92.7369296,-10.9805628 C92.3730959,-11.5486368 89.9677509,-15.4237128 87.380489,-19.6031142 C80.2250929,-31.1674774 79.4367866,-32.3847788 79.2952957,-32.4862205 C79.2144438,-32.5470856 79.0527399,-32.4659322 78.951675,-32.3239137 Z" id="Path" fill="#007FFF" fill-rule="nonzero" mask="url(#mask-2)"></path>
        </g>
    </g>
</svg>