<svg xmlns="http://www.w3.org/2000/svg" xmlns:xlink="http://www.w3.org/1999/xlink" viewBox="0 0 600 355">
  <defs>
    <path id="a" d="M64.7.4A2527.3 2527.3 0 0 1 42 36.7c-1.8 2.9-8 12.6-13.5 21.6l-18 29c-.3.5-1.3 2-2.1 3.6a35.7 35.7 0 0 0-3.7 7.4A66.2 66.2 0 0 0 .8 134 64.8 64.8 0 0 0 65 188c10.7 0 19.2-2 28.6-6.6a64.8 64.8 0 0 0 25.9-94l-18-29L88 36.7l-4.2-6.8A2527.3 2527.3 0 0 1 65.1.1s-.3 0-.4.3z"/>
    <linearGradient id="c" x1="100%" x2="0%" y1="100%" y2="100%">
      <stop offset="0%" stop-color="#0056E6"/>
      <stop offset="100%" stop-color="#166DFF"/>
    </linearGradient>
  </defs>
  <g fill="none" fill-rule="evenodd">
    <path fill="#FFF" d="M0 0h600v355H0z" class="aqua-background"/>
    <g transform="translate(93 51)">
      <mask id="b" fill="#fff">
        <use xlink:href="#a"/>
      </mask>
      <use fill="#0043B3" fill-rule="nonzero" xlink:href="#a"/>
      <path fill="#0056E6" fill-rule="nonzero" d="M64.4-19.3L54-2.8a2374.5 2374.5 0 0 1-11 17.6L30.3 35.2l-17 27.2-2 3.3a33.5 33.5 0 0 0-3.4 7 62 62 0 0 0-3.6 33.6A60.9 60.9 0 0 0 64.8 157c10 0 18-1.8 27-6.2a60.9 60.9 0 0 0 24.4-88.3l-17-27.2-12.7-20.4-4-6.3a2374.5 2374.5 0 0 1-17.6-28c-.1-.1-.3 0-.5.2z" mask="url(#b)"/>
      <path fill="#166DFF" fill-rule="nonzero" d="M64.8-16.4l-8.2 13A1854.2 1854.2 0 0 1 48 10.3L38 26.2 24.7 47.5 23.2 50a26.1 26.1 0 0 0-2.7 5.5 48.4 48.4 0 0 0-2.9 26.2A47.5 47.5 0 0 0 65 121.3a45 45 0 0 0 21.2-4.8 47.5 47.5 0 0 0 19.1-69c-.8-1.3-6-9.4-13.3-21.3L82 10.3l-3.1-5a1854.2 1854.2 0 0 1-13.8-21.8l-.3.1z" mask="url(#b)"/>
      <path fill="#007FFF" fill-rule="nonzero" d="M64.6-26.4L58-16a1492 1492 0 0 1-6.9 11l-8 12.8c-5.9 9.5-10 16-10.5 17L31.4 27a21 21 0 0 0-2.1 4.4 39.1 39.1 0 0 0-2.3 21A38.3 38.3 0 1 0 96.8 25L86.2 7.8 78.3-5a281.2 281.2 0 0 0-6.9-11 232 232 0 0 0-6.6-10.6s-.2 0-.2.2z" mask="url(#b)"/>
    </g>
    <path fill="#000" d="M340.3 185.4c.4.9.6 1.7.6 2.6a5 5 0 0 1-1.8 3.9 6.3 6.3 0 0 1-4.3 1.6c-1 0-2-.3-3-.8-1-.6-1.7-1.5-2.2-2.7l-6-13.4h-35.2l-6 13.4c-.5 1.2-1.3 2-2.2 2.7a6.4 6.4 0 0 1-7.3-.8 5 5 0 0 1-1.9-3.9c0-.9.2-1.7.6-2.6l27.6-59.3a6.5 6.5 0 0 1 2.8-3 7.9 7.9 0 0 1 7.9 0c1.2.7 2.1 1.7 2.7 3l27.7 59.3zm-47.5-18.8h26.4L306 136.9l-13.2 29.7zm97.7-23.4c1.9 0 3.4.5 4.5 1.6 1.1 1 1.7 2.5 1.7 4.3v56.7c0 1.7-.6 3.1-1.8 4.2a6.7 6.7 0 0 1-4.6 1.6c-1.9 0-3.3-.5-4.4-1.5a5.3 5.3 0 0 1-1.7-4.1v-20.6a15.5 15.5 0 0 1-6.3 6.3 19.3 19.3 0 0 1-9.4 2.2c-4.3 0-8-1-11.3-3.1-3.3-2-5.8-5-7.6-8.8a30.3 30.3 0 0 1-2.8-13.3c0-5 1-9.5 2.8-13.4a20.3 20.3 0 0 1 19-12.3c3.4 0 6.6.7 9.4 2.3 2.7 1.5 4.8 3.6 6.3 6.3v-2.5c0-1.8.6-3.2 1.7-4.3 1.1-1 2.6-1.6 4.5-1.6zm-18.6 41c4 0 7-1.4 9.2-4.1 2.1-2.7 3.2-6.6 3.2-11.6s-1-9-3.3-11.7a11.1 11.1 0 0 0-9.2-4.1c-4 0-7 1.4-9.2 4.2a18.7 18.7 0 0 0-3.3 11.8c0 5 1.1 8.7 3.3 11.5 2.2 2.7 5.3 4 9.3 4zm76.3-41c2 0 3.5.5 4.6 1.6 1.1 1 1.7 2.5 1.7 4.3v38.8c0 1.7-.6 3.1-1.8 4.2a6.5 6.5 0 0 1-4.5 1.6 6 6 0 0 1-4.3-1.5c-1-1-1.6-2.4-1.6-4.1v-2.5a16 16 0 0 1-6.2 6.2 18 18 0 0 1-8.8 2.1c-12 0-18-6.7-18-20.2v-24.6c0-1.8.6-3.2 1.7-4.3 1.1-1 2.6-1.6 4.5-1.6 2 0 3.5.5 4.6 1.6 1.1 1 1.7 2.5 1.7 4.3v24.7c0 3.5.7 6 2.1 7.7 1.4 1.7 3.6 2.5 6.6 2.5 3.5 0 6.2-1.1 8.4-3.4a13 13 0 0 0 3.1-9.2v-22.3c0-1.8.6-3.2 1.7-4.3 1.1-1 2.6-1.6 4.5-1.6zm40.5-.2c6.8 0 11.8 1.7 15.2 5 3.3 3.4 4.9 8.5 4.9 15.4v24.4c0 1.8-.5 3.2-1.6 4.3a6 6 0 0 1-4.4 1.5c-1.7 0-3.1-.5-4.3-1.6a5.6 5.6 0 0 1-1.6-4.2v-2.2a13 13 0 0 1-5.3 6.1 16 16 0 0 1-8.5 2.2c-3.3 0-6.2-.7-8.9-2a15.8 15.8 0 0 1-6.3-5.5c-1.5-2.3-2.3-5-2.3-7.8 0-3.6 1-6.4 2.8-8.5 1.8-2 4.8-3.6 8.9-4.5 4.1-1 9.8-1.4 17.1-1.4h2.5v-2.3c0-3.3-.7-5.6-2.1-7.2-1.4-1.5-3.7-2.2-6.8-2.2-2 0-3.9.3-5.9.8a80 80 0 0 0-7.1 2.5 10 10 0 0 1-3.8 1.3c-1.2 0-2.2-.4-3-1.3a5 5 0 0 1-1.1-3.4c0-1.1.3-2.1.8-3a8 8 0 0 1 2.9-2.3 43 43 0 0 1 17.9-4.1zm-3.1 41.9c3.3 0 6-1.1 8.1-3.3 2.2-2.3 3.2-5.2 3.2-8.7v-2.1h-1.8c-4.5 0-8 .2-10.4.6-2.5.4-4.2 1.1-5.3 2.1-1 1-1.6 2.4-1.6 4.1 0 2.1.7 3.9 2.3 5.3a8 8 0 0 0 5.5 2z"/>
    <path fill="url(#c)" d="M0 326c55.7-36 128.8-53 219.3-50.8 135.8 3.1 198.3 58.7 273.1 62.2 50 2.3 85.8-12.5 107.6-44.5v62.2H0V326z"/>
  </g>
</svg>
