<svg xmlns="http://www.w3.org/2000/svg" viewBox="0 0 600 355">
  <defs>
    <radialGradient id="a" r="84.51%" fx="50%" fy="50%" gradientTransform="matrix(.59167 0 0 1 .2 0)">
      <stop offset="0%" stop-color="#166DFF"/>
      <stop offset="100%" stop-color="#0346B8"/>
    </radialGradient>
  </defs>
  <g fill="none" fill-rule="evenodd">
    <path fill="url(#a)" d="M0 0h600v355H0z"/>
    <g fill="#FFF">
      <path d="M135.13 105.9v33.83l-23.93-13.59-44.82 25.98v51.66l44.82 25.99 23.93-13.6v32.93L111.2 263 37 220.4v-85.5L111.2 92l11.59 6.73z"/>
      <path fill-opacity=".75" d="M111.2 140.64l23.93 13.55v47.09l-23.93 13.68V177.5zM156.33 117.98l29.08 16.92v85.5l-29.08 16.62V177.5z"/>
    </g>
    <path fill="#FFF" d="M237.47 157.34a24 24 0 0 1 7.49 1.04c2.11.7 3.94 1.67 5.47 2.92 3.03 2.44 5 5.88 5.9 10.3l-9.07 1.65a13.51 13.51 0 0 0-3.56-5.94 8.44 8.44 0 0 0-6.01-2.27 9.4 9.4 0 0 0-7.92 4.1c-2.16 2.98-3.24 7.1-3.24 12.35 0 5.26.96 9.36 2.88 12.31 1.92 2.96 4.53 4.43 7.85 4.43 3.3 0 5.8-.8 7.48-2.41a8.24 8.24 0 0 0 2.52-6.23h9.15c0 5.23-1.67 9.28-5 12.13-3.34 2.86-7.91 4.29-13.72 4.29-6.2 0-11.11-2.16-14.76-6.48-3.7-4.42-5.55-10.42-5.55-18 0-7.68 1.9-13.68 5.7-18 3.64-4.13 8.44-6.2 14.4-6.2zm52.13 41.32c-2.2 4.66-5.76 6.99-10.66 6.99-6.19 0-10.27-2.43-12.24-7.27a15.51 15.51 0 0 1-1.08-6.12v-22.32h8.5v21.45c0 2.3.55 4.02 1.66 5.15a5.47 5.47 0 0 0 4.06 1.7c1.61 0 2.97-.24 4.07-.7a7.84 7.84 0 0 0 2.88-2.04c1.78-2.07 2.71-4.83 2.81-8.28v-17.28h8.5V205h-8.5v-6.34zm51.26-24.55c2.98 3.36 4.47 7.78 4.47 13.25s-1.56 9.98-4.68 13.54a14.5 14.5 0 0 1-11.3 5.1 10.8 10.8 0 0 1-5.95-1.72 11.66 11.66 0 0 1-4.28-5.33l-2.09 6.05h-5.54v-49.4h8.5v18.8c2.2-3.55 5.5-5.33 9.9-5.33 4.39 0 8.05 1.68 10.97 5.04zm-20.88 11.23v4.61c.1 2.45.99 4.47 2.67 6.05a8.01 8.01 0 0 0 5.8 2.3c2.27 0 4.23-1 5.86-2.98 1.63-2 2.45-4.62 2.45-7.89 0-3.26-.8-5.87-2.41-7.81a7.5 7.5 0 0 0-6.01-2.92c-2.4 0-4.4.8-5.98 2.38-1.58 1.58-2.38 3.67-2.38 6.26zm60.12-11.16c1.2 1.54 2.1 3.32 2.7 5.33.6 2.02.9 3.87.9 5.55 0 1.68-.1 3.19-.28 4.53H360.8c.1 2.83.79 5.14 2.09 6.91 1.3 1.78 3.26 2.67 5.9 2.67 3.5 0 5.6-1.54 6.26-4.61h8.57a12.56 12.56 0 0 1-4.82 8.28c-2.74 2.11-6.07 3.17-10.01 3.17-4.6 0-8.47-1.68-11.6-5.04-3.2-3.5-4.82-8-4.82-13.47 0-5.61 1.61-10.12 4.83-13.53a15.25 15.25 0 0 1 11.59-4.9c4.85 0 8.62 1.7 11.3 5.11zm-11.23 1.66c-2.4 0-4.27.78-5.61 2.34a10.53 10.53 0 0 0-2.38 6.01h14.9c0-3.79-1.2-6.33-3.6-7.63a7.03 7.03 0 0 0-3.3-.72zm47.81 23.76c-2.16 4.27-5.47 6.4-9.94 6.4-4.46 0-8.2-1.7-11.23-5.1-3.12-3.56-4.68-8.07-4.68-13.54 0-5.47 1.49-9.91 4.47-13.32a14.01 14.01 0 0 1 10.94-4.97c4.37 0 7.66 1.75 9.86 5.26V155.6h8.57V205h-6.98l-1.01-5.4zm-8.86-22.9c-2.4 0-4.4.98-6 2.92-1.62 1.94-2.42 4.55-2.42 7.81 0 3.27.82 5.9 2.45 7.89 1.63 1.99 3.7 2.98 6.19 2.98 2.06 0 3.91-.81 5.54-2.44a8.6 8.6 0 0 0 2.52-6.34v-4.54a8.79 8.79 0 0 0-2.52-6.12c-1.44-1.44-3.36-2.16-5.76-2.16zm47.02-19.36a24 24 0 0 1 7.49 1.04c2.11.7 3.93 1.67 5.47 2.92 3.02 2.44 5 5.88 5.9 10.3l-9.07 1.65a13.51 13.51 0 0 0-3.56-5.94 8.44 8.44 0 0 0-6.01-2.27 9.4 9.4 0 0 0-7.92 4.1c-2.16 2.98-3.24 7.1-3.24 12.35 0 5.26.96 9.36 2.88 12.31 1.92 2.96 4.53 4.43 7.84 4.43 3.32 0 5.81-.8 7.5-2.41a8.24 8.24 0 0 0 2.51-6.23h9.15c0 5.23-1.67 9.28-5 12.13-3.34 2.86-7.92 4.29-13.72 4.29-6.2 0-11.12-2.16-14.76-6.48-3.7-4.42-5.55-10.42-5.55-18 0-7.68 1.9-13.68 5.69-18 3.65-4.13 8.45-6.2 14.4-6.2zm53.42 13.82c-.76-4.08-3.64-6.12-8.64-6.12-2.44 0-4.35.5-5.72 1.48s-2.05 2.17-2.05 3.56c0 1.4.44 2.48 1.33 3.28.89.79 2.27 1.52 4.14 2.2l10.15 3.95c3.46 1.35 6.12 3.04 8 5.08a10.9 10.9 0 0 1 2.8 7.67c0 4.22-1.58 7.57-4.75 10.04-3.17 2.47-7.68 3.7-13.54 3.7-5.18 0-9.38-1.26-12.6-3.8-3.6-2.8-5.5-6.73-5.68-11.82h8.42c0 3.84 2 6.27 5.98 7.28 1.2.33 2.78.5 4.75.5 1.97 0 3.79-.5 5.47-1.48 1.68-.98 2.52-2.3 2.52-3.96 0-1.65-.46-2.92-1.37-3.81-.91-.89-2.4-1.72-4.46-2.49l-9.29-3.67c-3.6-1.39-6.36-3.02-8.28-4.9-1.92-1.87-2.88-4.46-2.88-7.77 0-3.89 1.51-6.96 4.54-9.22 3.07-2.35 7.23-3.52 12.49-3.52 5.25 0 9.31 1.2 12.17 3.63 2.85 2.43 4.5 5.82 4.93 10.19h-8.43zm45.94 0c-.77-4.08-3.65-6.12-8.64-6.12-2.45 0-4.36.5-5.72 1.48-1.37.98-2.06 2.17-2.06 3.56 0 1.4.45 2.48 1.34 3.28.88.79 2.26 1.52 4.14 2.2l10.15 3.95c3.45 1.35 6.12 3.04 7.99 5.08a10.9 10.9 0 0 1 2.8 7.67c0 4.22-1.58 7.57-4.74 10.04-3.17 2.47-7.68 3.7-13.54 3.7-5.18 0-9.38-1.26-12.6-3.8-3.6-2.8-5.5-6.73-5.69-11.82h8.43c0 3.84 1.99 6.27 5.97 7.28 1.2.33 2.79.5 4.75.5 1.97 0 3.8-.5 5.48-1.48 1.68-.98 2.52-2.3 2.52-3.96 0-1.65-.46-2.92-1.37-3.81-.91-.89-2.4-1.72-4.47-2.49l-9.28-3.67c-3.6-1.39-6.36-3.02-8.28-4.9-1.92-1.87-2.88-4.46-2.88-7.77 0-3.89 1.5-6.96 4.53-9.22 3.07-2.35 7.24-3.52 12.5-3.52 5.25 0 9.3 1.2 12.16 3.63 2.86 2.43 4.5 5.82 4.93 10.19h-8.42z"/>
  </g>
</svg>
