<svg xmlns="http://www.w3.org/2000/svg" viewBox="0 0 269 77">
  <g fill="none" fill-rule="evenodd">
    <path fill="#fff" fill-rule="nonzero" d="M200.7 49.4c0-4.5 7.2 8.8 11.7 8.4 4.4-.5 3-9.5 7.6-8 2.2.8 4 1.4 6.4 3.5 2.4 2 5.5 5.2 4.1 7.8-2.6 5.2-13.5 10.3-20.6 7.2-7-3.1-9.2-14.4-9.2-19zm2.5 4.8c1 3.3 3.4 8 4.7 9.8a7.7 7.7 0 0 0 5 3c2.3.5 7 .3 9.6-1.9.3-.2-2.5-1-3.6-1.5l-.4-.3c2.4-1.8 5-4.1 4-4.6-.6-.3-4.7 2-6.1 2-.8 0 .5-2.2-.8-2-.9 0-1.4 1.3-2.6 1.3-1.7 0-2.8-.3-4.2-1.3-3.5-2.5-6.4-6.8-5.6-4.5z"/>
    <path stroke="#fff" stroke-width="2.2" d="M244 40c4-4 7.8-7.4 9-8.5 5.8-5.7 8.5-8 12-12.3 2.2-2.6 1.6-4.4-1.4-7.2s-4.5-5.3-8.1-2.2c-4.1 3.4-12.5 14-19.1 23m-6.7 9.4a47 47 0 0 0-3 5c-1.3 2.7.5 5.8 4 5.3.4 0 1.9-.7 3.1-2.2l2.3-2.4"/>
    <g stroke-width="2.2">
      <path stroke="#fff" d="M205.1 20l8-8.3 48 44.2 4.4 6.4-4.5 5.1-7.5-3.6z"/>
      <path stroke="#fff" stroke-linecap="square" d="M252.6 62.7l6.9-7.5"/>
      <path fill="#FFF" stroke="#fff" d="M262.5 64.1l5.4 4.8"/>
      <path stroke="#fff" stroke-linejoin="round" d="M207.1 17.9l-5.3-4.4 3.8-4.4 5.3 4.8z"/>
      <path stroke="#fff" stroke-linecap="round" d="M218.9 15.9c.7-1 1.4-1.7 2-2.2.5-.3 1-.6 1.5-.7.4-.1 1.5 0 2 .2.8.4 1.5 1 1.9 1.5 2.3 2.5 5 4.8 6.3 6"/>
    </g>
    <g fill-rule="nonzero">
      <path stroke="#fff" stroke-width="3" d="M136 2.5c-29.6 0-36.5 6.9-36.5 36.5s6.8 36.5 36.5 36.5c29.6 0 36.5-6.9 36.5-36.5 0-29.7-6.9-36.5-36.5-36.5z"/>
      <path stroke="#fff" stroke-width="7" d="M129.7 56.3c6.1 0 11-5 11.1-11a11 11 0 1 0-11 11z"/>
      <path fill="#fff" d="M156.3 59.3h-7.2V26h-33.2v-7.2h40.4z"/>
    </g>
    <g>
      <path d="M17.3 3.2L38.4 1l21.1 2.2 16.3 22L38.4 69 1 25.2z"/>
      <g stroke="#fff" stroke-linejoin="round" stroke-width="2">
        <path d="M16.2 25.2L38.4 69 1 25.2zM60.7 25.2L38.5 69l37.4-43.7z"/>
        <path d="M16.2 25.2h44.5L38.4 69z"/>
      </g>
      <g stroke="#fff" stroke-linejoin="round" stroke-width="2">
        <path d="M38.4 1L17.3 3.2l-1.1 22zM38.4 1l21.1 2.2 1.2 22z"/>
        <path d="M75.9 25.2l-16.3-22 1 22zM1 25.2l16.3-22-1.1 22z"/>
        <path d="M38.4 1L16.2 25.2h44.5z"/>
      </g>
    </g>
  </g>
</svg>
