<svg xmlns="http://www.w3.org/2000/svg" viewBox="0 0 269 77">
  <g fill="none" fill-rule="evenodd">
    <path fill="#1A1A1A" fill-rule="nonzero" d="M200.7 49.4c0-4.5 7.2 8.8 11.7 8.4 4.4-.5 3-9.5 7.6-8 2.2.8 4 1.4 6.4 3.5 2.4 2 5.5 5.2 4.1 7.8-2.6 5.2-13.5 10.3-20.6 7.2-7-3.1-9.2-14.4-9.2-19z"/>
    <path fill="#8B93FF" d="M203.2 54.2c1 3.3 3.4 8 4.7 9.8a7.7 7.7 0 0 0 5 3c2.3.5 7 .3 9.6-1.9.3-.2-2.5-1-3.6-1.5l-.4-.3c2.4-1.8 5-4.1 4-4.6-.6-.3-4.7 2-6.1 2-.8 0 .5-2.2-.8-2-.9 0-1.4 1.3-2.6 1.3-1.7 0-2.8-.3-4.2-1.3-3.5-2.5-6.4-6.8-5.6-4.5z"/>
    <path fill="#8B93FF" stroke="#1A1A1A" stroke-width="2.2" d="M226.6 47.2c-1.2 2.7.6 5.8 4.2 5.3.3 0 1.8-.7 3-2.2 5-5.7 16.8-16.5 19.2-18.8 5.8-5.7 8.5-8 12-12.3 2.2-2.6 1.6-4.4-1.4-7.2s-4.5-5.3-8.1-2.2c-7.2 6-27.1 33.5-28.9 37.4z"/>
    <g stroke-width="2.2">
      <path fill="#8B93FF" stroke="#1A1A1A" d="M205.1 20l8-8.3 48 44.2 4.4 6.4-4.5 5.1-7.5-3.6z"/>
      <path stroke="#1A1A1A" stroke-linecap="square" d="M252.6 62.7l6.9-7.5"/>
      <path fill="#FFF" stroke="#1A1A1A" d="M262.5 64.1l5.4 4.8"/>
      <path fill="#8B93FF" stroke="#000" stroke-linejoin="round" d="M207.1 17.9l-5.3-4.4 3.8-4.4 5.3 4.8z"/>
      <path stroke="#1A1A1A" stroke-linecap="round" d="M218.9 15.9c.7-1 1.4-1.7 2-2.2.5-.3 1-.6 1.5-.7.4-.1 1.5 0 2 .2.8.4 1.5 1 1.9 1.5 2.3 2.5 5 4.8 6.3 6"/>
    </g>
    <g>
      <g transform="translate(98 1)">
        <path stroke="#1A1A1A" stroke-width="3" d="M38 1.5C8.4 1.5 1.5 8.4 1.5 38S8.3 74.5 38 74.5c29.6 0 36.5-6.9 36.5-36.5C74.5 8.3 67.6 1.5 38 1.5z"/>
        <path fill="#1A1A1A" fill-rule="nonzero" d="M31.7 58.8a14.5 14.5 0 1 1 .3-29 14.5 14.5 0 0 1-.3 29z"/>
        <path fill="#1A1A1A" fill-rule="nonzero" d="M58.3 58.3h-7.2V25H17.9v-7.2h40.4z"/>
        <circle cx="31.7" cy="44.3" r="7.5" fill="#8B93FF"/>
      </g>
    </g>
    <g>
      <path d="M17.3 3.2L38.4 1l21.1 2.2 16.3 22L38.4 69 1 25.2z"/>
      <g stroke="#1A1A1A" stroke-linejoin="round" stroke-width="2">
        <path d="M16.2 25.2L38.4 69 1 25.2zM60.7 25.2L38.5 69l37.4-43.7z"/>
        <path d="M16.2 25.2h44.5L38.4 69z"/>
      </g>
      <g stroke="#191A1B" stroke-linejoin="round" stroke-width="2">
        <path d="M38.4 1L17.3 3.2l-1.1 22zM38.4 1l21.1 2.2 1.2 22z"/>
        <path d="M75.9 25.2l-16.3-22 1 22zM1 25.2l16.3-22-1.1 22z"/>
        <path d="M38.4 1L16.2 25.2h44.5z"/>
      </g>
    </g>
  </g>
</svg>
