<svg xmlns="http://www.w3.org/2000/svg" viewBox="0 0 309 77">
  <g fill="none" fill-rule="evenodd">
    <path stroke="#FFF" stroke-width="4" d="M35.9 3.32L2.33 15.1l5.34 44.05 28.27 15.49 28.44-15.7 5.33-44.05L35.9 3.32z"/>
    <path fill="#FFF" fill-rule="nonzero" d="M43 42.77l-7.2 3.32h-7.6l-3.56 8.79L18 55l17.8-39L43 42.77zm-.7-1.67l-6.45-12.6-5.3 12.38h5.25l6.5.22z"/>
    <path fill="#FFF" d="M36 16l.05 12.47 5.81 12.35h-5.85L36 45.99l8.08.01 3.78 8.88L54 55z"/>
    <g fill="#FFF" fill-rule="nonzero">
      <path d="M189.8 43.66c-3.56.02-6.64.87-9.22 2.14-.96-1.88-1.91-3.52-2.07-4.75-.18-1.43-.4-2.3-.18-4 .22-1.7 1.21-4.12 1.21-4.31-.02-.18-.21-1.05-2.26-1.07-2.05-.02-3.82.4-4.02.93-.2.53-.6 1.76-.85 3.02-.36 1.87-4.1 8.46-6.23 11.92-.7-1.35-1.29-2.53-1.4-3.48-.19-1.43-.4-2.3-.19-4 .22-1.7 1.21-4.12 1.21-4.32-.02-.17-.21-1.05-2.26-1.07-2.05-.01-3.82.4-4.02.94-.2.53-.42 1.8-.85 3.02-.42 1.23-5.4 12.23-6.68 15.1a61.14 61.14 0 0 1-1.65 3.43c-.42.79-.02.06-.06.14l-.56 1.05v.02c-.28.49-.58.97-.72.97-.1 0-.3-1.33.04-3.15.74-3.82 2.53-9.78 2.5-10 0-.1.35-1.14-1.14-1.68-1.46-.53-1.97.36-2.1.36-.11 0-.21.31-.21.31s1.6-6.7-3.08-6.7c-2.95 0-7 3.18-9.01 6.1l-6.84 3.71c-1.1.6-2.23 1.23-3.3 1.8l-.22-.23c-5.69-6.04-16.2-10.32-15.77-18.43.16-2.95 1.2-10.73 20.2-20.15 15.57-7.72 28.04-5.6 30.2-.89 3.09 6.73-6.65 19.24-22.84 21.04-6.16.7-9.4-1.68-10.22-2.57-.85-.93-.97-.97-1.3-.8-.5.28-.19 1.11 0 1.6.49 1.25 2.47 3.47 5.85 4.58 2.97.97 10.2 1.5 18.95-1.86 9.8-3.78 17.46-14.27 15.21-23.04-2.28-8.92-17.16-11.85-31.21-6.89-8.37 2.97-17.44 7.6-23.96 13.68-7.76 7.2-8.99 13.5-8.47 16.11 1.8 9.32 14.71 15.4 19.88 19.9-.26.13-.5.27-.71.39-2.59 1.26-12.43 6.39-14.9 11.81-2.78 6.14.44 10.55 2.59 11.15 6.64 1.84 13.44-1.47 17.12-6.91 3.66-5.44 3.22-12.51 1.53-15.74l-.06-.12 2.03-1.18c1.3-.77 2.6-1.49 3.73-2.1a24.54 24.54 0 0 0-1.33 6.73c-.28 3.48 1.16 8 3.04 9.78.84.77 1.83.79 2.45.79 2.19 0 3.18-1.8 4.28-3.96 1.35-2.63 2.54-5.68 2.54-5.68s-1.5 8.25 2.58 8.25c1.5 0 2.99-1.92 3.66-2.9v.01l.12-.2.24-.37v-.04c.6-1.03 1.93-3.39 3.92-7.28 2.56-5.03 5.03-11.33 5.03-11.33s.24 1.55.97 4.08c.44 1.5 1.4 3.15 2.13 4.75l-.95 1.3.02.03c-.48.63-1.02 1.3-1.57 1.98-2.03 2.41-4.46 5.16-4.78 5.95-.37.93-.3 1.63.44 2.18.54.4 1.5.48 2.5.4a11.2 11.2 0 0 0 3.74-.85c1-.36 2.13-.9 3.23-1.69a7.13 7.13 0 0 0 3.08-6.31 12.65 12.65 0 0 0-1.18-4.45l.54-.8c3.14-4.57 5.57-9.6 5.57-9.6s.24 1.55.97 4.08c.38 1.29 1.14 2.7 1.81 4.08-2.94 2.4-4.79 5.17-5.43 6.99-1.17 3.36-.26 4.89 1.47 5.24.78.16 1.9-.2 2.73-.55 1.03-.34 2.29-.91 3.44-1.76 1.99-1.47 3.9-3.5 3.8-6.26-.06-1.26-.4-2.51-.86-3.7a19.45 19.45 0 0 1 9.86-1.13c8.85 1.03 10.6 6.53 10.26 8.83-.34 2.3-2.18 3.56-2.8 3.96-.62.37-.82.51-.76.79.08.42.36.4.9.32.73-.12 4.65-1.88 4.81-6.12.24-5.44-4.95-11.38-14.16-11.32zm-68.24 22.9c-2.92 3.19-7.03 4.4-8.78 3.36-1.9-1.08-1.16-5.78 2.44-9.16a46.77 46.77 0 0 1 6.9-5.13l1.81-1.08.2-.12.46-.28c1.33 4.83.06 9.06-3.03 12.4zm21.38-14.47c-1.01 2.48-3.16 8.83-4.45 8.47-1.12-.3-1.8-5.1-.22-9.85.8-2.4 2.48-5.25 3.48-6.36 1.6-1.78 3.36-2.37 3.8-1.64.51.95-1.97 7.84-2.61 9.38zm17.64 8.4c-.44.21-.84.37-1.02.25-.14-.08.18-.38.18-.38s2.2-2.35 3.08-3.44c.5-.63 1.1-1.36 1.73-2.2v.24c0 2.85-2.74 4.75-3.97 5.52zm13.6-3.1c-.32-.23-.28-.96.8-3.26.4-.91 1.36-2.43 3.01-3.88.2.6.32 1.17.3 1.7-.02 3.57-2.56 4.9-4.11 5.45z"/>
    </g>
    <g>
      <path fill="#FFF" d="M292.36 39.71c-1.16-3.4-5.93-3.4-6.86-.58-.93 2.81 2.21 4.45 7.1 6.1 4.88 1.64 7.91 5.98 7.33 9.85-.58 3.87-2.21 8.92-11.87 8.92-6.04 0-9.4-3.8-11.06-6.66l5.47-3.31s1.86 3.99 5.36 3.99c3.49 0 4.88-1.18 4.88-3.88 0-3.28-11.28-4.45-13.03-10.09-1.75-5.63.58-13.6 8.73-13.02 5.09.37 7.95 2.89 9.38 4.73l-5.43 3.95zM267.37 32v22.93c0 2.75-2.32 4.18-4.65 3.7-2.32-.47-3.37-3.34-3.37-3.34L254 59s1.16 5.5 8.49 5.98c7.32.47 11.51-4.07 11.51-7.89V32h-6.63z"/>
      <path stroke="#FFF" stroke-width="4" d="M236 3h71v71h-71z"/>
    </g>
  </g>
</svg>
