<svg xmlns="http://www.w3.org/2000/svg" viewBox="0 0 600 355">
  <defs>
    <linearGradient id="a" x1="0%" y1="50%" y2="50%">
      <stop offset="0%" stop-color="#212121"/>
      <stop offset="100%" stop-color="#303030"/>
    </linearGradient>
  </defs>
  <g fill="none" fill-rule="evenodd">
    <path fill="url(#a)" d="M0 0h600v355H0z"/>
    <path fill="#FFF" d="M232.8 164.5h17v4.1h-12.4v6.3H249v4h-11.7v7h13v4.1h-17.6v-25.5zm19.3 8.2h4.7l4.6 12.1h.1l4.6-12h4.5l-6.8 17.2h-4.6l-7.1-17.3zm24.5 10.2c.1 1.3.6 2.3 1.5 3 .9.7 1.9 1 3.1 1 1.1 0 2-.1 2.7-.6.8-.4 1.4-1 2-1.7l3 2.4a8.8 8.8 0 0 1-7.2 3.4c-1.3 0-2.6-.2-3.7-.6a8.8 8.8 0 0 1-5-4.7 9.1 9.1 0 0 1-.7-3.7 9.1 9.1 0 0 1 2.7-6.6c.8-.8 1.8-1.4 3-1.9 1.1-.4 2.4-.6 3.7-.6 1.2 0 2.3.2 3.3.6a7 7 0 0 1 2.5 1.8c.7.8 1.3 1.8 1.7 3 .4 1.1.6 2.5.6 4v1.2h-13.2zm8.8-3.3a4 4 0 0 0-1.1-3 4.5 4.5 0 0 0-3.3-1c-1.2 0-2.3.3-3 1a5 5 0 0 0-1.4 3h8.8zm8.4-6.9h4.1v2.8a6 6 0 0 1 2-2.3c.8-.6 2-1 3.4-1 1.1 0 2 .3 2.9.7a5.5 5.5 0 0 1 3 3.6c.3.9.4 1.7.4 2.6V190h-4.4v-8.7-1.7c0-.5-.2-1-.4-1.6-.2-.5-.5-1-1-1.3-.4-.4-1-.5-1.7-.5s-1.4.1-1.8.3c-.5.3-1 .6-1.3 1l-.7 1.4-.2 1.7v9.4h-4.3v-17.3zm18.6 3.7v-3.7h3.6v-5h4.3v5h4.8v3.7h-4.8v7.6c0 .8.2 1.5.5 2s1 .8 2 .8c.3 0 .7 0 1.2-.2.5 0 .8-.2 1-.4v3.7l-1.6.4-1.7.1c-1.2 0-2.1 0-2.9-.3a3.7 3.7 0 0 1-2.6-3.1l-.2-2.7v-8h-3.6zm25.3 1.1a4 4 0 0 0-5.1-1.3c-.6.3-.8.7-.8 1.4 0 .5.2.9.7 1.1a139.7 139.7 0 0 0 4 1.1c.7.2 1.5.5 2.2.9a5 5 0 0 1 1.7 1.5c.5.7.7 1.6.7 2.7a4.8 4.8 0 0 1-2.4 4.3c-.7.4-1.5.8-2.4 1a12.6 12.6 0 0 1-6.4-.3 7 7 0 0 1-3-2.1l2.9-2.7c.5.6 1.1 1.1 1.8 1.5a4.6 4.6 0 0 0 3.3.5c.3 0 .6-.2.9-.4.3-.1.5-.4.7-.6l.3-.9c0-.6-.3-1-.7-1.3a6 6 0 0 0-1.7-.7l-2.3-.5c-.8-.2-1.5-.4-2.2-.8-.7-.3-1.3-.8-1.8-1.4-.4-.7-.6-1.5-.6-2.6a5 5 0 0 1 2.1-4.3c.7-.4 1.4-.8 2.2-1a10.2 10.2 0 0 1 6 .3c1.1.4 2 1 2.8 2l-3 2.6zm17.9-13h7l6.7 17.9 6.9-17.9h6.8V190h-4.3v-21.2l-7.8 21.2h-3.2l-7.7-21.2V190h-4.4v-25.5zm43.6 23.1c-.7 1-1.5 1.7-2.4 2.2a8.4 8.4 0 0 1-5.5.3c-.8-.2-1.5-.5-2-1a4.6 4.6 0 0 1-2-3.9c0-.9.2-1.7.5-2.3a5 5 0 0 1 1.3-1.7c.6-.4 1.3-.8 2-1l2.3-.7a20.6 20.6 0 0 1 4.8-.3h1v-.4c0-1.1-.3-2-1-2.5-.8-.5-1.8-.8-3-.8a6.7 6.7 0 0 0-4.5 1.8l-2.3-2.2c1-1 2-1.7 3.4-2.2a12.4 12.4 0 0 1 7-.2c.9.3 1.6.6 2.1 1 .6.5 1 1 1.3 1.6l.7 1.7.2 1.6V190h-3.9v-2.4zm-.2-5.3h-1a31.6 31.6 0 0 0-4 .4c-.7.2-1.3.4-1.7.8-.5.3-.7.8-.7 1.4 0 .4 0 .8.3 1l.7.8 1 .4h1c1.5 0 2.6-.3 3.3-1a4 4 0 0 0 1-2.9v-1zm8.8-9.6h4v2.8h.1a6 6 0 0 1 2-2.3c.8-.6 1.9-1 3.3-1 1.2 0 2.2.3 3 .7a5.5 5.5 0 0 1 3 3.6c.2.9.3 1.7.3 2.6V190h-4.3v-8.7-1.7l-.4-1.6c-.2-.5-.6-1-1-1.3-.4-.4-1-.5-1.8-.5-.7 0-1.3.1-1.8.3a3.9 3.9 0 0 0-2 2.4l-.1 1.7v9.4h-4.3v-17.3zm31.4 15c-.7 1-1.5 1.6-2.5 2-1 .5-2 .7-3.1.7-.8 0-1.6 0-2.3-.3-.8-.2-1.5-.5-2-1a4.6 4.6 0 0 1-2-3.9c0-.9.1-1.7.5-2.3a5 5 0 0 1 1.3-1.7c.6-.4 1.3-.8 2-1l2.3-.7a20.6 20.6 0 0 1 4.8-.3h1v-.4c0-1.1-.3-2-1-2.5-.8-.5-1.8-.8-3-.8a6.7 6.7 0 0 0-4.5 1.8l-2.3-2.2c1-1 2-1.7 3.4-2.2a12.4 12.4 0 0 1 7-.2c.9.3 1.6.6 2.1 1 .6.5 1 1 1.3 1.6l.7 1.7.2 1.6V190h-3.9v-2.4zm-.2-5.4h-1a31.6 31.6 0 0 0-4 .4c-.7.2-1.3.4-1.7.8-.5.3-.7.8-.7 1.4 0 .4 0 .8.3 1l.7.8 1 .4h1c1.5 0 2.6-.3 3.3-1a4 4 0 0 0 1-2.9v-1zm26.5-9.6v15.8c0 1.5-.1 3-.5 4.2-.4 1.2-1 2.3-1.8 3.2a8 8 0 0 1-3 2 12 12 0 0 1-4.4.7c-1.6 0-3.1-.2-4.6-.6-1.4-.4-2.8-1.1-4-2.2l2.6-3.5c.9.8 1.8 1.4 2.7 1.8 1 .4 2 .7 3.3.7a7 7 0 0 0 2.6-.5c.7-.3 1.2-.7 1.7-1.2.4-.5.7-1 .9-1.8l.2-2.3v-1.3c-.7.8-1.5 1.5-2.5 1.9-1 .4-2.1.6-3.2.6a8.6 8.6 0 0 1-6.2-2.6 8.2 8.2 0 0 1-1.8-2.8 10.8 10.8 0 0 1 0-7 8.2 8.2 0 0 1 4.4-4.8c1-.5 2.2-.7 3.5-.7 1.3 0 2.4.2 3.5.7 1 .5 1.8 1.3 2.5 2.3v-2.6h4.1zm-9.2 3.5c-.7 0-1.4.1-2 .4-.7.2-1.2.6-1.7 1-.4.4-.7 1-1 1.6a5.7 5.7 0 0 0 0 4 4.9 4.9 0 0 0 2.7 2.7c.6.3 1.3.4 2 .4.8 0 1.5-.1 2.1-.4a4.5 4.5 0 0 0 2.6-2.7c.3-.6.4-1.2.4-2a5 5 0 0 0-1.3-3.6 5 5 0 0 0-3.8-1.4zm17.6 6.7c.1 1.3.6 2.3 1.5 3 .9.7 2 1 3.1 1s2-.1 2.8-.6c.7-.4 1.3-1 1.9-1.7l3 2.4a8.8 8.8 0 0 1-7.2 3.4c-1.3 0-2.5-.2-3.7-.6a8.8 8.8 0 0 1-5-4.7 9.1 9.1 0 0 1-.7-3.7 9.1 9.1 0 0 1 2.7-6.6c.9-.8 1.9-1.4 3-1.9 1.2-.4 2.4-.6 3.7-.6 1.2 0 2.3.2 3.3.6a7 7 0 0 1 2.5 1.8c.7.8 1.3 1.8 1.7 3 .4 1.1.6 2.5.6 4v1.2h-13.2zm8.9-3.3a4 4 0 0 0-1.2-3 4.5 4.5 0 0 0-3.2-1c-1.3 0-2.4.3-3.1 1a5 5 0 0 0-1.4 3h8.9zm8.3-6.9h4.3v2.8h.1a5.4 5.4 0 0 1 6.7-3v4.2a12.1 12.1 0 0 0-2.1-.3c-1 0-1.8.2-2.5.5a4.4 4.4 0 0 0-2 2.8l-.2 1v9.3h-4.3v-17.3z"/>
    <path fill="#FFF" fill-rule="nonzero" d="M165 170h-40v8h40v-8zm8-28h-4v-8h-8v8h-32v-8h-8v8h-4a8 8 0 0 0-8 8v56a8 8 0 0 0 8 8h56a8 8 0 0 0 8-8v-56a8 8 0 0 0-8-8zm0 64h-56v-44h56v44zm-20-20h-28v8h28v-8z"/>
  </g>
</svg>
