<svg xmlns="http://www.w3.org/2000/svg" viewBox="0 0 267 332">
  <g fill="none" fill-rule="evenodd" transform="translate(6)">
    <circle cx="127.5" cy="198.5" r="127.5" fill="#03FFE0"/>
    <path fill="#545454" stroke="#2A2A2A" stroke-width="5.4" d="M103.2 210c-16.8.8-28.2 5-34.2 12.7-6 7.6-9 23.7-9 48.3h135c0-24.6-3-40.7-9-48.3-6-7.6-16.5-11.9-31.5-12.7"/>
    <path fill="#545454" d="M24.7 278.9A74.3 74.3 0 0 1 42 247c16-17 51-17 85-17s73 3 88 17a71 71 0 0 1 17.4 28.9c-35 36-70 54.1-105.4 54.1-35.3 0-69.4-17-102.3-51.1z"/>
    <path fill="#545454" stroke="#2A2A2A" stroke-width="6" d="M24.7 278.9A74.3 74.3 0 0 1 42 247c16-17 51-17 85-17s73 3 88 17a71 71 0 0 1 17.4 28.9"/>
    <circle cx="127.5" cy="198.5" r="130.5" stroke="#2A2A2A" stroke-width="6"/>
    <path stroke="#2A2A2A" stroke-width="6" d="M127 272v54"/>
    <path fill="#545454" d="M81 223c3.8 3 6.7 9.3 8.8 18.9.7 3.4 1.2 6.8 1.4 10.3a20 20 0 0 0 20 18.8h32.7a20 20 0 0 0 20-19.2c.2-3.7.6-7 1.3-10 1.7-7.4 5-13.7 9.8-18.8H81z"/>
    <path fill="#FFDFBE" stroke="#2A2A2A" stroke-width="6" d="M100 209v19a27 27 0 0 0 54 0v-19h-54z"/>
    <path fill="#EEC8A2" d="M99 187h55v24.5a27.5 27.5 0 1 1-55 0V187z"/>
    <path fill="#FFDFBE" stroke="#2A2A2A" stroke-width="6" d="M202 122.3c4-6.6 8.3-9.3 13-8 7 2 5.6 16 4 22-1.6 6-7.4 14.2-12 18-3 2.6-5.4 3.6-7 3l2-35zM51 122.3c-4-6.6-8.3-9.3-13-8-7 2-5.6 16-4 22 1.6 6 7.4 14.2 12 18 3 2.6 5.4 3.6 7 3l-2-35z"/>
    <path fill="#F9D3AC" stroke="#2A2A2A" stroke-width="6" d="M205 72.1C176.8 39.3 150.4 23 126 23c-23 0-48.7 18.1-77 54.7-1.4 25.6-2 44.6-2 57 0 3.7.6 8 1.6 12.8 1 3.9 2 8 3.6 12.7l3.7 10.9c2.7 8.5 12 23 23 34.3C93.2 220.3 109.3 229 126 229s32.3-8.5 46.2-23c10.5-11 19.3-25.2 23-35a176 176 0 0 0 9.8-36.3V72.2z"/>
    <path fill="#EBC59F" fill-opacity=".8" d="M52 109.3c1.4-7.3 12.9-24 19-33.3A24 24 0 0 1 89.9 66c14.4 0 19.8 6.5 35.4 6.5 15.6 0 19.7-6.5 32.3-6.5 3.3 0 16.5.6 23.4 10.1 5.2 7.1 17.9 21 22 33.3 2.7 8 1.7-2.2-3-30.6-1-9-3.2-18-6.8-26.7-5.4-13-34.8-38.2-67.9-38-33 .2-58 24.3-65.2 39A75 75 0 0 0 52 78.7v18c0 11.4-2.7 26.6 0 12.6z"/>
    <path fill="#634021" stroke="#2A2A2A" stroke-width="6" d="M48.4 120.3a1217 1217 0 0 1 4.4-18.2 204.4 204.4 0 0 0 .8-4.6l.1-1A603.8 603.8 0 0 1 56 85a54.6 54.6 0 0 1 6.6-17.7A28.8 28.8 0 0 1 86 54.7a55 55 0 0 1 20 3.8c8.1 2.6 12.4 3.5 19.2 3.5a46.5 46.5 0 0 0 20.4-4.3 41.3 41.3 0 0 1 27.7-1.2c6.7 2 12.3 5.4 16.1 10.7 3 4.2 4.3 9 5.8 19.6.9 6.1 1 7.5 1.6 10.2.6 3 1.2 5.6 2 8l4.8 15.3.9-28.3c.7-6.4.9-13 .5-19.8l-.1-2.2c-.2-3.6-.3-5.4-.6-7.4-.7-5-2.4-10-6.6-19a72.4 72.4 0 0 0-25.3-25.8A86.2 86.2 0 0 0 125.3 3c-16.3.1-32 5.5-45.8 14.6a74.2 74.2 0 0 0-24.8 26A66.2 66.2 0 0 0 47 72v20c0 5.8.5 15.2 1.4 28.3z"/>
    <path fill="#FFF" stroke="#2A2A2A" stroke-linecap="round" stroke-linejoin="round" stroke-width="4.5" d="M98 185c6 15.3 15.5 23 28.5 23s22.5-7.7 28.5-23a204.8 204.8 0 0 1-57 0z"/>
    <path stroke="#432E1B" stroke-linecap="round" stroke-width="6" d="M78 111c5.8-5.3 11.9-8 18.3-8s11 1.3 13.7 4"/>
    <path fill="#432E1B" fill-rule="nonzero" d="M173 113.2a3 3 0 0 0 4-4.4 29.7 29.7 0 0 0-20.3-8.8c-7 0-12.4 1.5-15.8 4.8a3 3 0 0 0 4.2 4.4c1.4-1.4 6.9-3.2 9.9-3.2s5.2.2 11 2c3 1 5.2 3.6 7 5.2z"/>
    <path stroke="#2A2A2A" stroke-linecap="round" stroke-width="4.5" d="M114 159a14 14 0 0 0 23 0"/>
    <g stroke="#000">
      <path stroke-width="4.4" d="M73.1 110.2a11 11 0 0 0-10.7 13.5c3.6 15.4 13.3 23 29.6 23s26-7.6 29.6-23a11 11 0 0 0-10.7-13.5H73zM141.1 110.2a11 11 0 0 0-10.7 13.5c3.6 15.5 13.3 23.1 29.6 23.1s26-7.6 29.6-23.1a11 11 0 0 0-10.7-13.5H141z"/>
      <path stroke-width="4" d="M121 121.6h10"/>
      <path stroke-linecap="round" stroke-linejoin="round" stroke-width="4" d="M192 121.6h6.2a7 7 0 0 0 5.9-3.2l5.9-9.4M59 120.6h-6.2a7 7 0 0 1-5.9-3.2L41 108"/>
    </g>
    <path fill="#EBC59F" d="M114 213h24c-4 2.7-8 4-12 4s-8-1.3-12-4z"/>
    <path fill="#2F1F12" d="M183.6 42.6a60 60 0 0 1-5.8 11.6c4.7-4.6 7.5-7.6 8.4-8.9 1.3-2 1.5-3.1 1.3-6-.2-2-1-3.7-2.3-5-.4 3.2-1 6-1.6 8.3zM110.7 58.5c-4.8-2.4-7.3-7.7-7.4-15.8a50 50 0 0 1 6.9-25 108.3 108.3 0 0 0-1 24.5c.8 5.8 3 11.5 6.6 17.2l-5-.9zM62 62a12.2 12.2 0 0 1-4-7.8c-.3-3.1 2-9.5 7-19.2-2.3 8.1-3.5 14-3.5 17.4 0 3.5.2 6.7.5 9.6z"/>
    <g transform="translate(73 115)">
      <path fill="#FFF" stroke="#000" stroke-width="3" d="M4.4 1.3c3.3-1 28.8-1 32 0 4.1 1.2 7.6 9.1 5.4 12.8-2.8 4.7-10.2 8.4-19.8 8.4-10.2 0-21-4.8-23-9.6C-2.7 8.7.4 2.5 4.4 1.3z"/>
      <path fill="#8B572A" d="M24 19c6 0 11-5.1 11-11.5a11.9 11.9 0 0 0-1.9-6.4C30 .5 18 .5 15.3.5a11.6 11.6 0 0 0-2.3 7C13 13.9 18 19 24 19z"/>
      <circle cx="24" cy="8" r="6" fill="#000"/>
      <path stroke="#000" stroke-width="3" d="M4.4 1.3c3.3-1 28.8-1 32 0 4.1 1.2 7.6 9.1 5.4 12.8-2.8 4.7-10.2 8.4-19.8 8.4-10.2 0-21-4.8-23-9.6C-2.7 8.7.4 2.5 4.4 1.3z"/>
    </g>
    <g transform="matrix(-1 0 0 1 179 115)">
      <path fill="#FFF" stroke="#000" stroke-width="3" d="M4.4 1.3c3.3-1 28.8-1 32 0 4.1 1.2 7.6 9.1 5.4 12.8-2.8 4.7-10.2 8.4-19.8 8.4-10.2 0-21-4.8-23-9.6C-2.7 8.7.4 2.5 4.4 1.3z"/>
      <path fill="#8B572A" d="M24 19c6 0 11-5.1 11-11.5a11.9 11.9 0 0 0-1.9-6.4C30 .5 18 .5 15.3.5a11.6 11.6 0 0 0-2.3 7C13 13.9 18 19 24 19z"/>
      <circle cx="24" cy="8" r="6" fill="#000"/>
      <path stroke="#000" stroke-width="3" d="M4.4 1.3c3.3-1 28.8-1 32 0 4.1 1.2 7.6 9.1 5.4 12.8-2.8 4.7-10.2 8.4-19.8 8.4-10.2 0-21-4.8-23-9.6C-2.7 8.7.4 2.5 4.4 1.3z"/>
    </g>
    <path fill="#2F1F12" d="M138 60c1.7-8 2.7-14 3-18 .3-4-.4-8.3-2-13a27.5 27.5 0 0 1 7 14.7c.3 4.4-1.4 8.7-5 13l-3 3.3zM126 4c-3.3 4.8-5 8.7-5 11.6 0 2.9.7 8 2 15.4 2-7.4 3-12.5 3-15.4V4zM78.4 33.5c1.6-7.3 5.1-13 10.5-16.8-3.7 10-5.5 17-5.5 20.8 0 3.7 1.8 8.8 5.3 15.2-8.5-5.5-12-11.9-10.3-19.2zM168.7 30.2c-1.6-7.3-5.1-13-10.4-16.8 3.6 10 5.5 17 5.4 20.8 0 3.7-1.8 8.8-5.3 15.2 8.6-5.5 12-11.9 10.3-19.2z"/>
    <path stroke="#2A2A2A" stroke-linecap="round" stroke-width="6" d="M80 223c3.8 3 6.7 9.3 8.8 18.9.7 3.4 1.2 6.8 1.4 10.3a20 20 0 0 0 20 18.8h32.7a20 20 0 0 0 20-19.2c.2-3.7.6-7 1.3-10 1.7-7.4 5-13.7 9.8-18.8"/>
    <path stroke="#FFF" stroke-linecap="round" stroke-width="6" d="M111 262v52M143.5 262v28"/>
  </g>
</svg>
