<svg xmlns="http://www.w3.org/2000/svg" viewBox="0 0 901 364">
  <g fill="none" fill-rule="evenodd">
    <g stroke="#fff" stroke-width="2" transform="matrix(-1 0 0 1 362 2)">
      <path d="M267 191c0 11 6.5 20 14.5 20s14.5-9 14.5-20c0-3.4-.6-6.6-1.7-9.4"/>
      <path stroke-linejoin="round" d="M295 183c-6.7-3.3-13-3.7-19-1s-10.3 9.3-13 20c-2-19.3 2.7-30 14-32 8.7-2 14.7 2.3 18 13z"/>
      <path d="M247 262v-12l9-30h15a20 20 0 0 0 4 7 17 17 0 0 0 7 3c3.4-1.5 5.7-2.9 7-4 1.3-1.1 2.6-3.1 4-6h15l9 30v12h-12v-17 17h-23v-32 32h-22v-18 18h-13z"/>
      <g transform="translate(142 220)">
        <ellipse cx="34.5" cy="20" rx="14.5" ry="20"/>
        <path d="M0 90V78l9-30h21v10h2l-2 32 2-32h6l2 32-2-32h2V48h-9 30l9 30v12H58V73v17H13V72v18zM20 20l9-10 19 6"/>
      </g>
      <g transform="translate(186 108)">
        <path d="M88 49L76 34H0V0h124v34H88z"/>
        <circle cx="26" cy="17" r="6"/>
        <circle cx="62" cy="17" r="6"/>
        <circle cx="98" cy="17" r="6"/>
      </g>
      <path d="M39 210v-12l9-30h39-26v9l13 8 13-8v-9h13l9 30v12H97v-17 17H74v-25 25H52v-18 18zM62.1 152.4c2.7 4.6 6.8 7.6 11.4 7.6 5 0 9.6-3 12.3-8.2"/>
      <path stroke-linejoin="round" d="M60.4 136.8a45.6 45.6 0 0 0 25.9 0l-1 16.2h8.1c1.2-10.2.6-17.7-1.8-22.5-3.5-7.2-9.4-13.5-17.8-13.5s-15.2 5.4-18.8 13.5a39.2 39.2 0 0 0-.9 22.5h8l-1.7-16.2z"/>
      <g>
        <path d="M178 210l-17-15h-19v-33h87v33h-51z"/>
        <path stroke-linecap="round" d="M156 178.5h21M191 178.5h18"/>
      </g>
      <g>
        <path d="M90 107.2v-14H74V57h144.5v36.2H107z"/>
        <path stroke-linecap="round" d="M93 75.5h46M154 75.5h32"/>
      </g>
      <circle cx="180" cy="180" r="180"/>
    </g>
    <path stroke="#fff" stroke-linecap="round" stroke-linejoin="round" stroke-width="2" d="M568 312.5l29.7-81.2c1.2-3.5 5-5.3 8.5-4 3.4 1.2 5.2 5 4 8.5L580.6 317l-12.5-4.5zm0 0l-3.7 30 16.3-25.5-12.5-4.5zm-1.3 14l6.3 2.3-6.3-2.2zm29.6-87.5l10 3.6-10-3.6zm-2.4 6.6l10 3.6-10-3.6zm3 3l-8.4 23.1 8.4-23.1z"/>
    <g stroke="#fff" stroke-width="2" transform="translate(409 130)">
      <path d="M2 73h13v30H2zM25 53h13v50H25zM48 61h13v42H48zM71 31h13v72H71z"/>
      <circle cx="8.5" cy="47.5" r="6.5"/>
      <circle cx="31.5" cy="28.5" r="6.5"/>
      <circle cx="54.5" cy="37.5" r="6.5"/>
      <circle cx="77.5" cy="8.5" r="6.5"/>
      <path d="M13 42l13-10M38 31l10 5M59 32l14-19M0 103.5h86"/>
    </g>
    <path fill="#fff" d="M373 272h5v5h-5zM381 264h5v5h-5zM389 272h5v5h-5zM381 281h5v5h-5z"/>
    <path stroke="#fff" stroke-width="2" d="M421 320l7-6-13-12 9-5-28-8 8 27 5-8z"/>
    <g stroke="#fff" stroke-linecap="round" stroke-width="2">
      <path stroke-linejoin="round" d="M339.7 75.7l1.9-2.1m3.6-4.1l4.2-4.5m4.6-4.6c25.3-25.2 46.3-35 63-29.2 20.7 7.2 31.7 27.5 33 60.8"/>
      <path d="M450.5 101v10M450.5 121v4"/>
    </g>
    <g stroke="#fff" stroke-linecap="round" stroke-width="2">
      <path d="M451 249.2v2.2m.2 6.3c0 1.7.2 3.3.4 5m.9 6.6c6.6 37.5 33.1 58.3 51.5 46.7 32.2-20.3 42.5-82.9 63-116a186.4 186.4 0 0 1 28.6-35.8m5.6-5.2a182 182 0 0 1 8.6-7.2m5.6-4.2l3.6-2.6"/>
    </g>
    <g stroke="#fff" stroke-width="2">
      <path d="M549.6 135l35.4-8.9-5.9-24.1-36.1 8.9z"/>
      <path d="M581 110l-6 1.1 2.5 7.9 5.5-1.1M544.7 111c-4.1-5.7-7-10-8.8-13.3-1.8-3.1-3.8-7.4-5.9-12.8l7.3-7 3 11.2-8.8-35.9 8.8-2.2 8 32.8-3-12.2 9.2-1 2.6 11-2.6-11 8.1-.8 2.2 10-2.2-10 8-.8c2.9 7.6 4.7 13.4 5.6 17.3.8 4 1.4 9.4 1.8 16.2l-33.3 8.5z"/>
      <path stroke-linecap="round" d="M552 87l4-1M563 84l4-1"/>
      <path d="M518.8 64l-1.8 9.7 9.6-.7"/>
      <path d="M517 73.7l5.3-4.7a29 29 0 0 1 6-3.6M515.7 50.3l4 3.3M530.7 35l2 7.7M552.3 41.7l-2.3 3.6M553 56a22 22 0 0 0-5 1M578 56a68 68 0 0 0-20-.5"/>
      <path d="M573.4 50l5.6 7.2-8 3.8"/>
    </g>
    <g>
      <path stroke="#fff" stroke-width="2" d="M643 4h256v356H643z"/>
      <g fill="#fff" transform="translate(777 103)">
        <circle cx="2.8" cy="2.8" r="2.8"/>
        <circle cx="14.9" cy="2.8" r="2.8"/>
        <circle cx="28.1" cy="2.8" r="2.8"/>
        <circle cx="40.2" cy="2.8" r="2.8"/>
        <circle cx="2.8" cy="40.2" r="2.8"/>
        <circle cx="14.9" cy="40.2" r="2.8"/>
        <circle cx="28.1" cy="40.2" r="2.8"/>
        <circle cx="40.2" cy="40.2" r="2.8"/>
        <circle cx="40.2" cy="14.9" r="2.8"/>
        <circle cx="40.2" cy="28.1" r="2.8"/>
        <circle cx="2.8" cy="14.9" r="2.8"/>
        <circle cx="2.8" cy="28.1" r="2.8"/>
      </g>
      <g fill="#fff" transform="translate(718 103)">
        <circle cx="40.2" cy="2.8" r="2.8"/>
        <circle cx="2.8" cy="40.2" r="2.8"/>
        <circle cx="14.9" cy="40.2" r="2.8"/>
        <circle cx="28.1" cy="40.2" r="2.8"/>
        <circle cx="40.2" cy="40.2" r="2.8"/>
        <circle cx="40.2" cy="14.9" r="2.8"/>
        <circle cx="40.2" cy="28.1" r="2.8"/>
        <circle cx="2.8" cy="28.1" r="2.8"/>
      </g>
      <path stroke="#fff" stroke-width="2" d="M711 85h39v39h-39zM663 105h39v39h-39zM836 105h39v39h-39z"/>
      <g stroke="#fff" stroke-width="2">
        <g transform="translate(756.5 168)">
          <circle cx="28.5" cy="18.5" r="8.5"/>
          <path d="M2 2h119v79H2z"/>
          <path d="M3 65l25-26 23 30-9-12 40-44 39 49"/>
        </g>
        <g transform="translate(659.5 168)">
          <circle cx="41.5" cy="41.5" r="39.5"/>
          <circle cx="41.5" cy="41.5" r="30.5"/>
        </g>
      </g>
      <g stroke="#fff" stroke-width="2" transform="translate(659 24)">
        <g transform="translate(178)">
          <circle cx="21" cy="21" r="21"/>
          <circle cx="21" cy="13" r="6"/>
          <path d="M7 37c2.7-8.3 7.3-12.4 14-12.4s11.3 3.8 14 11.5"/>
        </g>
        <rect width="162" height="38" x="2" y="2" rx="19"/>
      </g>
      <g stroke="#fff" stroke-width="2">
        <path d="M661.5 273h62v63h-62zM738.5 273h62v63h-62zM815.5 273h62v26h-62zM815.5 310h62v26h-62z"/>
      </g>
    </g>
  </g>
</svg>
